<?xml version="1.0" encoding="UTF-8" standalone="no"?>
<!-- Created with Inkscape (http://www.inkscape.org/) -->

<svg
   xmlns:dc="http://purl.org/dc/elements/1.1/"
   xmlns:cc="http://creativecommons.org/ns#"
   xmlns:rdf="http://www.w3.org/1999/02/22-rdf-syntax-ns#"
   xmlns:svg="http://www.w3.org/2000/svg"
   xmlns="http://www.w3.org/2000/svg"
   xmlns:sodipodi="http://sodipodi.sourceforge.net/DTD/sodipodi-0.dtd"
   xmlns:inkscape="http://www.inkscape.org/namespaces/inkscape"
   version="1.1"
   id="svg3897"
   width="769.33331"
   height="781.33331"
   viewBox="0 0 769.33331 781.33331"
   sodipodi:docname="RebornRUM.svg"
   inkscape:version="0.92.4 5da689c313, 2019-01-14">
  <metadata
     id="metadata3903">
    <rdf:RDF>
      <cc:Work
         rdf:about="">
        <dc:format>image/svg+xml</dc:format>
        <dc:type
           rdf:resource="http://purl.org/dc/dcmitype/StillImage" />
        <dc:title></dc:title>
      </cc:Work>
    </rdf:RDF>
  </metadata>
  <defs
     id="defs3901" />
  <sodipodi:namedview
     pagecolor="#ffffff"
     bordercolor="#666666"
     borderopacity="1"
     objecttolerance="10"
     gridtolerance="10"
     guidetolerance="10"
     inkscape:pageopacity="0"
     inkscape:pageshadow="2"
     inkscape:window-width="1366"
     inkscape:window-height="744"
     id="namedview3899"
     showgrid="false"
     inkscape:zoom="0.69624575"
     inkscape:cx="384.66666"
     inkscape:cy="390.66666"
     inkscape:window-x="0"
     inkscape:window-y="0"
     inkscape:window-maximized="1"
     inkscape:current-layer="svg3897" />
  <path
     inkscape:connector-curvature="0"
     id="path3921"
     d="M 191.69304,726.28892 C 191.37789,725.73638 149.29735,652.82179 98.180718,564.25653 L 5.2413949,403.22874 98.571614,241.58987 191.90184,79.950978 319.16317,79.284312 446.42451,78.617645 458.58538,65.767807 c 26.43369,-27.931277 56.76073,-45.231967 93.51754,-53.349022 18.34597,-4.0513671 53.17749,-4.3811717 70.35757,-0.666186 73.62064,15.919573 128.3938,71.978608 140.89074,144.198381 2.68704,15.52837 2.69878,44.79084 0.0241,60.15868 -5.91136,33.9651 -22.69531,67.15432 -46.73542,92.41634 -6.16202,6.47524 -11.20369,12.15259 -11.20369,12.61633 0,0.46374 10.55951,19.12084 23.46557,41.46022 l 23.46558,40.61703 -93.35972,161.69903 -93.35972,161.69902 -186.69096,0.33796 c -102.68,0.18587 -186.9488,-0.11413 -187.26393,-0.66667 z"
     style="fill:#9fabae;stroke-width:1.33333325" />
  <path
     inkscape:connector-curvature="0"
     id="path3919"
     d="M 189.69582,721.62226 C 174.82532,697.0975 6.779247,404.38464 6.8079944,403.05709 6.8291083,402.08206 48.442568,329.28431 99.28235,241.28431 l 92.43597,-159.999999 127.37982,-0.340007 127.37981,-0.340008 7.66403,-9.36772 c 18.18105,-22.222664 46.17082,-41.369499 75.70973,-51.790427 19.78278,-6.979095 36.32381,-9.7388596 58.25121,-9.7188381 30.5112,0.027859 54.71998,5.6800761 80.46189,18.7860771 16.93047,8.619827 28.16023,16.728034 42.96347,31.020859 25.92699,25.033032 43.05545,56.424193 50.79055,93.083403 3.32811,15.77292 3.32811,50.89374 0,66.66666 -7.36926,34.92537 -24.0287,66.60083 -47.65757,90.61382 l -10.57408,10.74598 23.3412,40.42005 c 12.83767,22.23104 23.32452,41.27508 23.30415,42.3201 -0.0204,1.04503 -41.63776,73.90004 -92.48305,161.90004 l -92.44599,160 -186.73867,0.33796 -186.73869,0.33794 z"
     style="fill:#00a8d2;stroke-width:1.33333325" />
  <path
     inkscape:connector-curvature="0"
     id="path3917"
     d="M 189.69582,721.62226 C 174.82532,697.0975 6.779247,404.38464 6.8079944,403.05709 6.8291083,402.08206 48.442568,329.28431 99.28235,241.28431 l 92.43597,-159.999999 127.37982,-0.340007 127.37981,-0.340008 7.66403,-9.36772 c 18.18105,-22.222664 46.17082,-41.369499 75.70973,-51.790427 19.78278,-6.979095 36.32381,-9.7388596 58.25121,-9.7188381 30.5112,0.027859 54.71998,5.6800761 80.46189,18.7860771 16.93047,8.619827 28.16023,16.728034 42.96347,31.020859 25.92699,25.033032 43.05545,56.424193 50.79055,93.083403 3.32811,15.77292 3.32811,50.89374 0,66.66666 -7.36926,34.92537 -24.0287,66.60083 -47.65757,90.61382 l -10.57408,10.74598 23.3412,40.42005 c 12.83767,22.23104 23.32452,41.27508 23.30415,42.3201 -0.0204,1.04503 -41.63776,73.90004 -92.48305,161.90004 l -92.44599,160 -186.73867,0.33796 -186.73869,0.33794 z M 444.73839,440.91561 466.4796,403.2136 444.76712,365.58228 423.05464,327.95097 h -44.24503 -44.24504 l -21.20762,36.66667 c -11.66418,20.16667 -21.21805,37.50645 -21.23081,38.53285 -0.0133,1.0264 9.64397,18.5844 21.45941,39.01779 l 21.48264,37.1516 43.9645,-0.35112 43.96449,-0.35112 z m 6.0312,-212.29797 v -12 h 13.86568 13.86569 l 5.0813,12 5.08128,12 h 12.31833 12.31832 l -1.82518,-4.33333 c -1.00384,-2.38333 -3.97344,-9.33699 -6.59909,-15.45257 l -4.77392,-11.11923 3.00045,-2.50308 c 1.65026,-1.37668 3.39936,-2.52303 3.88691,-2.54743 2.22028,-0.11106 10.48595,-13.5733 13.13292,-21.38945 5.82871,-17.2113 0.7578,-35.3771 -13.58116,-48.65244 -11.95318,-11.06655 -18.5198,-12.66913 -51.91198,-12.66913 h -26.52622 v 59.33333 59.33333 h 11.33334 11.33333 z m 0,-59.33333 v -24.66666 l 13,0.008 c 15.12255,0.008 21.34332,1.43737 27.00648,6.20262 13.87929,11.67864 10.75077,33.03033 -5.95132,40.61705 -4.14024,1.88064 -8.70884,2.45443 -19.72183,2.47694 l -14.33333,0.0287 z m 140.66666,67.95623 c 8.56356,-3.64488 16.29648,-9.88636 21.27621,-17.17274 7.80358,-11.41821 8.72379,-17.78909 8.72379,-60.39695 v -37.71987 h -11.24301 -11.24301 l -0.42366,39 c -0.36709,33.793 -0.72878,39.55734 -2.70909,43.1745 -5.47023,9.99172 -17.15051,15.35651 -27.49857,12.63018 -6.96766,-1.83574 -10.89486,-4.62407 -15.07599,-10.70404 -3.10137,-4.50986 -3.14479,-5.05523 -3.52943,-44.33333 l -0.38942,-39.76731 H 537.97753 526.631 l 0.40263,42.33333 0.40262,42.33333 3.66419,6.95078 c 6.81376,12.92538 16.01471,20.8168 29.38387,25.20181 7.17628,2.35379 23.75253,1.53456 30.95194,-1.52969 z m 62.28287,-42.07303 0.3838,-45.45014 3.74101,-3.21652 c 4.12623,-3.54774 8.3122,-4.04639 13.62957,-1.62362 7.0086,3.19332 7.29608,5.25567 7.29608,52.34087 v 43.39954 h 11.33334 11.33333 v -44.76922 -44.76924 l 3.89744,-3.89743 c 6.2524,-6.2524 15.54313,-4.57916 19.37164,3.48882 1.73022,3.64618 2.06425,11.27546 2.06425,47.14858 v 42.79849 h 11.33333 11.33334 v -44.51356 c 0,-37.49062 -0.34263,-45.57443 -2.17171,-51.23783 -4.43943,-13.74592 -15.86404,-22.74359 -30.35513,-23.9068 -9.33003,-0.74892 -15.51667,0.79727 -22.70296,5.67402 -2.98461,2.02542 -5.01044,2.67414 -5.56231,1.78121 -0.4774,-0.77244 -3.94446,-2.83691 -7.70461,-4.58771 -17.06047,-7.94371 -37.41495,-0.90392 -46.62012,16.12401 -2.77833,5.13941 -2.89756,7.06647 -3.27931,53 l -0.39614,47.66666 h 11.34569 11.34568 z"
     style="fill:#0087a8;stroke-width:1.33333325" />
  <path
     inkscape:connector-curvature="0"
     id="path3915"
     d="M 189.69582,721.62226 C 174.82532,697.0975 6.779247,404.38464 6.8079944,403.05709 6.8291083,402.08206 48.442568,329.28431 99.28235,241.28431 l 92.43597,-159.999999 127.37982,-0.340007 127.37981,-0.340008 7.66403,-9.36772 c 18.18105,-22.222664 46.17082,-41.369499 75.70973,-51.790427 19.78278,-6.979095 36.32381,-9.7388596 58.25121,-9.7188381 30.5112,0.027859 54.71998,5.6800761 80.46189,18.7860771 16.93047,8.619827 28.16023,16.728034 42.96347,31.020859 25.92699,25.033032 43.05545,56.424193 50.79055,93.083403 3.32811,15.77292 3.32811,50.89374 0,66.66666 -7.36926,34.92537 -24.0287,66.60083 -47.65757,90.61382 l -10.57408,10.74598 23.3412,40.42005 c 12.83767,22.23104 23.32452,41.27508 23.30415,42.3201 -0.0204,1.04503 -41.63776,73.90004 -92.48305,161.90004 l -92.44599,160 -186.73867,0.33796 -186.73869,0.33794 z M 361.43626,546.61763 v -37.99999 h -21.89743 -21.89742 l -10.21647,-17.66667 c -5.61905,-9.71667 -10.69559,-18.16704 -11.28117,-18.77861 -1.38479,-1.4462 -65.47735,35.30337 -65.04023,37.29294 0.183,0.83288 9.90583,18.08288 21.6063,38.33333 l 21.27357,36.819 h 43.72642 43.72643 z m 143.78957,0.62203 c 11.84906,-20.55789 21.53478,-37.80789 21.52382,-38.33333 -0.0328,-1.57061 -64.07433,-37.97192 -65.06611,-36.98368 -0.50267,0.50088 -5.5048,8.81215 -11.11584,18.46949 l -10.20188,17.55883 -22.13146,0.36557 -22.13144,0.36558 v 37.96775 37.96776 h 43.78958 43.78956 z M 250.41872,457.99477 c 23.75636,-13.66251 28.12421,-16.641 27.12601,-18.49757 -0.65438,-1.2171 -5.44648,-9.61862 -10.64912,-18.67004 -5.20264,-9.05144 -9.45935,-17.01427 -9.45935,-17.6952 0,-0.68092 4.13042,-8.33461 9.17868,-17.00821 5.04828,-8.67359 9.84204,-17.00964 10.6528,-18.52455 1.37813,-2.57508 -0.65907,-3.98393 -31.29381,-21.64175 -18.02235,-10.38804 -32.91299,-18.68914 -33.09031,-18.44692 -0.17732,0.24224 -10.06997,17.37756 -21.98366,38.07848 l -21.66127,37.63805 20.9554,36.36195 c 11.52548,19.99908 21.54533,37.11429 22.26635,38.03381 1.03042,1.3141 2.20238,1.13526 5.47672,-0.83576 2.29117,-1.37918 16.90788,-9.83572 32.48156,-18.79229 z m 194.61442,-17.06379 21.79645,-37.68665 -21.74991,-37.64668 -21.74989,-37.64668 h -44.53373 -44.53373 l -21.76415,37.66066 -21.76415,37.66065 14.86518,25.67268 c 8.17584,14.11997 18.10821,31.23073 22.07193,38.02392 l 7.20676,12.35124 44.1794,-0.35124 44.17938,-0.35124 z m 121.50142,0.31376 21.76497,-37.93925 -11.75574,-20.59672 -11.75575,-20.59672 -6.67589,-0.90308 c -8.91552,-1.20604 -27.27427,-6.56917 -38.20535,-11.16089 l -8.86277,-3.72292 -15.80389,9.11959 c -8.69214,5.01576 -15.64614,9.7548 -15.45334,10.5312 0.1928,0.77638 4.8428,9.13961 10.33334,18.58494 5.49053,9.44532 9.98278,17.832 9.98278,18.63705 0,0.80506 -4.46189,9.1395 -9.9153,18.52098 -5.45342,9.38146 -10.10342,17.75616 -10.33334,18.61041 -0.3318,1.23283 61.7306,38.74271 64.24864,38.83123 0.36667,0.0133 10.46091,-17.04923 22.43164,-37.91582 z m -259.79619,-124.66051 10.435,-17.96659 22.13145,-0.36557 22.13144,-0.36558 v -37.96775 -37.96776 h -43.78957 -43.78956 l -21.54377,37.37797 c -11.84907,20.55789 -21.53174,37.80789 -21.51703,38.33333 0.0347,1.23892 62.95772,37.56131 64.40682,37.17889 0.60512,-0.15969 5.79598,-8.37532 11.53522,-18.25694 z m 163.53558,14.60222 c 3.93927,-2.25382 7.16231,-4.34684 7.16231,-4.65116 0,-0.30432 -6.15,-6.72232 -13.66667,-14.26221 -15.09861,-15.14528 -24.28449,-27.64533 -33.58051,-45.69596 -5.69876,-11.06564 -15.41949,-37.92241 -15.41949,-42.60149 0,-1.61783 -1.87543,-2.02465 -9.33333,-2.02465 h -9.33334 v 37.96776 37.96775 l 22.14896,0.36558 22.14896,0.36557 10.65578,18.33333 c 5.86066,10.08334 10.9706,18.33334 11.3554,18.33334 0.3848,0 3.92266,-1.84404 7.86193,-4.09786 z M 450.76959,228.61764 v -12 h 13.81728 13.81728 l 5.03211,12 5.0321,12 h 12.45095 c 14.33586,0 13.63014,2.29747 5.31196,-17.29285 -2.63726,-6.21107 -4.79502,-11.83543 -4.79502,-12.49857 0,-0.66315 2.67795,-3.56295 5.951,-6.444 3.62206,-3.18826 7.66606,-8.72203 10.33334,-14.14006 3.9725,-8.0693 4.38233,-10.02661 4.38233,-20.92981 0,-10.24912 -0.52656,-13.15137 -3.56024,-19.62337 -4.54165,-9.68904 -13.82205,-18.96944 -23.51109,-23.51109 -7.40741,-3.47216 -8.32932,-3.57076 -37.262,-3.98523 l -29.66667,-0.42499 v 59.42499 59.42498 h 11.33334 11.33333 z m 0.64635,-36.23881 c -0.39238,-1.02251 -0.54832,-12.03708 -0.34655,-24.47681 l 0.36687,-22.61771 11.33333,-0.39993 c 18.86173,-0.6656 28.24267,3.08805 33.50724,13.40748 5.81004,11.38863 1.15748,26.69694 -9.90949,32.6052 -5.80612,3.09966 -33.87392,4.28961 -34.9514,1.48177 z m 142.28231,43.93229 c 9.64018,-4.41769 18.94564,-13.69165 23.51109,-23.43148 l 3.56024,-7.59533 0.40354,-41.66666 0.40353,-41.66667 h -12.0702 -12.0702 v 38.71979 c 0,35.94075 -0.18922,39.09069 -2.63648,43.8877 -7.29321,14.29587 -27.24636,16.98585 -38.29988,5.16341 -6.59541,-7.05421 -7.06364,-10.39473 -7.06364,-50.39474 v -37.37616 h -11.33333 -11.33333 v 40.61665 c 0,37.70633 0.19621,41.14107 2.73833,47.93551 4.71813,12.61032 17.49144,24.18898 31.92833,28.94217 1.83334,0.60361 8.13334,0.92849 14,0.72196 8.10362,-0.28529 12.49172,-1.21187 18.262,-3.85615 z m 59.738,-39.09302 c 0,-47.0852 0.28748,-49.14755 7.29608,-52.34087 5.37471,-2.44889 8.27663,-1.93697 13.01621,2.29611 l 4.35438,3.88903 0.40004,44.77763 0.40005,44.77764 h 11.26661 11.26663 v -43.2706 c 0,-46.58097 0.28705,-48.7637 6.86004,-52.16273 5.28411,-2.73252 8.38454,-2.36348 13.03765,1.55186 l 4.10231,3.45186 v 45.2148 45.21481 h 12 12 v -45.28332 c 0,-41.96993 -0.1945,-45.80313 -2.6581,-52.38769 -8.04052,-21.49024 -35.86511,-29.34292 -54.83303,-15.47502 -1.72686,1.26254 -2.92514,1.04268 -6,-1.10091 -5.82376,-4.05992 -12.05911,-5.75611 -21.04116,-5.72377 -10.08274,0.0363 -17.42123,3.19223 -24.58306,10.57202 -9.19586,9.47571 -9.55132,11.84394 -9.55132,63.63621 v 45.76248 h 11.33334 11.33333 z"
     style="fill:#02728e;stroke-width:1.33333325" />
  <path
     inkscape:connector-curvature="0"
     id="path3913"
     d="M 189.70072,721.62226 C 188.25674,719.23638 146.41843,646.81922 96.726668,560.69523 14.571719,418.3072 6.5018351,403.79684 7.7432283,400.69524 8.4940899,398.81923 50.201236,326.18431 100.42577,239.28431 l 91.31735,-157.999999 127.36742,-0.340007 127.36741,-0.340008 7.66403,-9.36772 c 18.74376,-22.910449 47.75458,-42.385735 78.39895,-52.630077 19.42936,-6.495187 34.39975,-8.851939 56.22866,-8.851939 29.79121,0 54.23898,5.747355 79.79522,18.758828 16.93047,8.619827 28.16023,16.728034 42.96347,31.020859 25.92699,25.033032 43.05545,56.424193 50.79055,93.083403 3.32811,15.77292 3.32811,50.89374 0,66.66666 -7.83869,37.15015 -26.89929,71.94062 -51.9109,94.75076 l -6.67129,6.08409 23.73874,41.10148 c 21.56369,37.3356 23.61088,41.42044 22.34333,44.58257 -0.76746,1.9146 -42.48798,74.58109 -92.71225,161.48109 l -91.31685,158 -186.73174,0.33796 -186.73174,0.33794 z M 362.76959,546.61763 v -37.99999 h -22.49188 -22.49188 l -10.97808,-19.18699 -10.97806,-19.187 -19.53006,11.34595 c -10.74151,6.24028 -25.38003,14.70229 -32.53003,18.80448 -7.15,4.10218 -13,7.99537 -13,8.65149 0,0.65613 9.65861,17.92826 21.46357,38.38252 l 21.46357,37.18954 h 44.53643 44.53642 z m 142.74645,0.66667 c 11.66392,-20.16667 21.21757,-37.32858 21.23033,-38.1376 0.0133,-0.809 -14.59309,-9.87778 -32.45747,-20.15284 l -32.48068,-18.6819 -11.00542,19.15284 -11.00541,19.15284 h -22.51391 -22.51389 v 38.01773 38.01773 l 44.76965,-0.35107 44.76967,-0.35106 z M 245.40741,461.26896 c 15.78253,-9.09262 29.78825,-17.33207 31.1238,-18.30988 2.2737,-1.66468 1.73182,-2.98552 -8.51256,-20.74922 l -10.94085,-18.97134 10.88772,-18.86861 c 5.98825,-10.37775 10.4189,-19.3255 9.8459,-19.8839 -1.37017,-1.33525 -63.40838,-37.20392 -64.33094,-37.19425 -1.29827,0.0136 -43.379,73.95438 -43.29811,76.07986 0.0437,1.14803 9.64368,18.69336 21.33333,38.98963 15.62788,27.13408 21.77567,36.70873 23.22504,36.17103 1.08414,-0.40222 14.88414,-8.17071 30.66667,-17.26332 z m 199.78361,-20.06794 21.75476,-37.97333 -21.75476,-37.92153 -21.75476,-37.92153 -44.66667,0.005 -44.66666,0.005 -21.72256,37.91746 -21.72256,37.91745 20.9023,36.36089 c 11.49628,19.99851 21.4949,37.11091 22.21916,38.02757 1.00764,1.27534 11.68806,1.65376 45.48691,1.61168 l 44.17008,-0.056 z m 120.9437,1.08328 c 11.71584,-20.35 21.30153,-37.90858 21.30153,-39.01909 0,-1.11051 -5.06081,-10.82649 -11.24625,-21.59108 -11.158,-19.41837 -11.2888,-19.57858 -16.66667,-20.41481 -9.7541,-1.51669 -26.54184,-6.32924 -37.68237,-10.80243 l -10.92863,-4.38809 -15.07137,8.72549 c -8.28925,4.79903 -15.5135,9.14464 -16.05389,9.65694 -0.54039,0.51229 3.80961,9.26352 9.66667,19.44714 5.85705,10.18364 10.64918,18.86996 10.64918,19.30295 0,0.43297 -4.80577,9.143 -10.67949,19.35561 -5.87371,10.21263 -10.22371,19.00561 -9.66667,19.54 1.30432,1.25123 63.45205,37.12405 64.37796,37.16015 0.38415,0.0149 10.28415,-16.62278 22,-36.97278 z m -258.10307,-127.33333 9.73065,-17 h 22.50364 22.50365 v -37.99999 -38 H 318.2183 273.667 l -21.4487,37.09293 c -11.79678,20.40111 -21.4487,37.67025 -21.4487,38.37586 0,0.70563 14.55,9.70115 32.33333,19.99006 27.72805,16.04262 32.53734,18.41042 33.7657,16.62413 0.7878,-1.14564 5.81116,-9.73299 11.16302,-19.08299 z m 170.64589,11 c -0.0371,-0.36666 -3.32475,-3.36666 -7.306,-6.66666 -8.98494,-7.4475 -23.38283,-24.01116 -31.09872,-35.77668 -8.79336,-13.40849 -18.30431,-34.04301 -22.38792,-48.57179 l -3.64966,-12.98486 h -9.73282 -9.73283 v 38 37.99999 h 22.54483 22.54482 l 11.01728,19.12247 11.01728,19.12247 8.42555,-4.78914 c 4.63405,-2.63402 8.39524,-5.08913 8.35819,-5.4558 z m -27.62652,-96.99999 0.38524,-11.66667 13.368,-0.37668 13.368,-0.37668 5.09965,12.04335 5.09964,12.04334 h 12.67501 c 9.62245,0 12.50731,-0.40138 11.97872,-1.66666 -0.38296,-0.91667 -3.24971,-7.80076 -6.37055,-15.29798 l -5.67426,-13.6313 6.17889,-5.43888 c 3.8504,-3.38926 7.83036,-8.79348 10.56123,-14.34066 3.9725,-8.0693 4.38233,-10.02661 4.38233,-20.92981 0,-10.20981 -0.53113,-13.16077 -3.51356,-19.52138 -4.75669,-10.14459 -11.46245,-17.21879 -21.46199,-22.64119 l -8.35778,-4.53213 -30.33333,-0.42347 -30.33334,-0.42346 v 59.42346 59.42346 h 11.28143 11.28141 z m 0.60746,-35.8889 c -0.48889,-0.48888 -0.88889,-11.28888 -0.88889,-23.99999 v -23.11111 h 15.38645 c 12.75087,0 16.28106,0.4564 20.60915,2.66441 10.7482,5.48334 15.1717,20.56674 9.36792,31.94308 -3.10015,6.07679 -7.97735,9.85461 -15.36352,11.90043 -5.77571,1.59973 -27.66109,2.05321 -29.11111,0.60318 z m 144.13556,42.28834 c 9.96972,-5.32462 16.68736,-12.38992 21.46198,-22.57276 l 3.51356,-7.49335 0.40354,-41.66666 0.40353,-41.66667 h -12.0702 -12.0702 v 38.81847 c 0,37.73051 -0.0837,38.96733 -2.98566,44.13073 -5.74203,10.21654 -21.372,15.04845 -31.58839,9.76536 -5.22348,-2.70118 -10.394,-9.18447 -12.03393,-15.0893 -0.79135,-2.84934 -1.38031,-20.41385 -1.38458,-41.29193 l -0.007,-36.33333 h -12.13032 -12.13032 l 0.54732,40.33333 c 0.62767,46.25456 1.3339,49.76579 12.5097,62.19596 11.10242,12.34857 20.65328,16.31387 37.87029,15.72288 9.88781,-0.33941 12.39933,-0.95836 19.69112,-4.85273 z m 57.90884,-39.37094 0.40004,-44.63814 3.6303,-3.62852 c 4.73316,-4.73081 11.5835,-4.92491 16.33324,-0.46276 l 3.36979,3.16576 v 45.1009 45.10092 h 12 12 V 197.2181 c 0,-47.54352 0.27348,-49.40003 7.73213,-52.48949 4.98568,-2.06515 10.29224,-0.68146 13.62229,3.55202 2.51848,3.20174 2.64558,5.50044 2.64558,47.85016 v 44.48685 h 12 12 l -0.0133,-46.33333 c -0.0133,-45.7325 -0.0533,-46.41978 -3.1241,-53 -3.50423,-7.50913 -12.0831,-15.91728 -19.34346,-18.95852 -2.66901,-1.11801 -8.65148,-2.03471 -13.29435,-2.03711 -6.85336,-0.004 -9.96658,0.78211 -16.54678,4.17579 -7.20317,3.71496 -8.3465,3.96174 -10.27385,2.21752 -4.14141,-3.74794 -12.74829,-6.38895 -20.83536,-6.39331 -14.07732,-0.008 -25.69459,7.03931 -31.79873,19.28872 l -3.4367,6.89717 v 47.07153 47.07154 h 11.26663 11.26661 z"
     style="fill:#00647d;stroke-width:1.33333325" />
  <path
     inkscape:connector-curvature="0"
     id="path3911"
     d="M 99.475132,565.06958 C 47.497919,475.05362 6.8385199,403.2477 7.1753592,402.06496 7.506488,400.90226 49.20584,328.25097 99.840586,240.61764 l 92.063174,-159.333329 127.2261,-0.339998 127.2261,-0.339999 8.54015,-10.05182 C 487.54756,32.12149 536.2114,9.9509799 587.91524,9.9509799 c 49.70262,0 90.69014,16.9504681 125.5541,51.9231451 25.74451,25.824797 41.73632,55.861005 48.87441,91.797105 3.14759,15.84627 3.1511,48.69633 0.007,64.52271 -6.90711,34.76697 -22.65225,65.22393 -46.41876,89.7911 l -12.11522,12.52339 23.60138,40.83821 c 13.70683,23.71736 23.33779,41.7674 22.97263,43.0546 -0.34582,1.21902 -42.0548,73.9164 -92.68663,161.54973 L 565.6465,725.2843 379.0119,725.62224 192.37729,725.9602 Z m 263.294458,91.54805 v -44 H 310.35785 257.94609 L 232.16245,567.95097 C 217.98144,543.3843 205.83488,523.2843 205.17008,523.2843 c -1.16608,0 -72.63728,40.76245 -74.79698,42.65925 -0.8076,0.7093 64.24484,115.63343 74.5337,131.67408 l 1.92428,3 h 77.96925 77.96926 z m 226.66666,-22.15399 c 20.9,-36.32214 38.17444,-66.51986 38.38764,-67.10605 0.40833,-1.12269 -73.01228,-44.07329 -75.33977,-44.07329 -0.74313,0 -12.9236,20.1 -27.06769,44.66667 l -25.71654,44.66666 h -52.46514 -52.46516 v 44 44 l 78.33333,-0.0568 78.33333,-0.0568 38,-66.04028 z m -226.97954,-87.51267 0.35378,-38.33333 -22.35378,-0.0205 -22.35378,-0.0205 -11.14486,-19.35903 -11.14485,-19.35904 -4.85515,2.8668 c -2.67033,1.57674 -17.45514,10.10476 -32.85514,18.95116 -15.4,8.8464 -28.19324,16.2204 -28.42944,16.38666 -0.58105,0.40901 41.01356,72.60455 43.54019,75.57245 1.84812,2.17089 5.33439,2.32432 45.44546,2 l 43.44379,-0.35127 z m 121.90311,36.66666 c 2.59561,-3.02286 44.09722,-75.11486 43.51706,-75.59299 -0.3266,-0.26916 -59.84622,-34.52 -65.31734,-37.58718 -0.4822,-0.27032 -5.8822,8.207 -12,18.83848 l -11.12328,19.32998 -22.33334,0.006 -22.33333,0.006 v 37.77777 c 0,20.77778 0.4,38.17778 0.88889,38.66666 0.48888,0.4889 20.1959,0.8889 43.79335,0.8889 39.20925,0 43.07701,-0.20096 44.90799,-2.33334 z m -332.53966,-68.313 c 36.48625,-20.96023 37.65776,-21.76018 35.89508,-24.51053 -1.00219,-1.56372 -12.76563,-21.85654 -26.14099,-45.09516 -22.17541,-38.52801 -24.17585,-42.52361 -22.69661,-45.33333 2.38915,-4.53801 46.67084,-81.26174 48.8224,-84.5911 1.77878,-2.75252 0.65018,-3.52664 -35.40907,-24.28751 -20.48552,-11.7944 -37.88163,-21.615 -38.65801,-21.82353 -0.77638,-0.20853 -18.831048,29.74645 -40.12149,66.56665 l -38.709895,66.94581 38.872144,67.32933 c 21.379681,37.03115 39.222481,67.13525 39.650681,66.89805 0.42819,-0.23721 17.75129,-10.18162 38.49576,-22.09868 z m 532.74945,-45.72981 38.21829,-66.37616 -18.17236,-31.62383 c -9.99481,-17.39312 -18.88494,-32.38844 -19.75588,-33.32295 -1.26821,-1.36079 -4.08957,-0.38849 -14.17012,4.88328 -20.34172,10.63803 -39.00498,16.2946 -65.38845,19.81833 l -7.46849,0.99748 11.13516,19.30171 c 6.12433,10.61595 11.13516,19.62806 11.13516,20.02693 0,0.39888 -11.44287,20.51311 -25.4286,44.69829 -13.98573,24.18519 -25.53573,44.39088 -25.66667,44.90154 -0.3572,1.3931 75.63657,45.06854 76.5528,43.99671 0.43497,-0.50885 17.98909,-30.79445 39.00916,-67.30133 z m -437.22832,-8.95718 c 17.24208,-9.9 31.36702,-18.55542 31.38877,-19.23426 0.0217,-0.67884 -4.78205,-9.53316 -10.67512,-19.67625 l -10.71464,-18.442 10.71464,-18.48397 c 5.89307,-10.16619 10.69687,-19.01187 10.67512,-19.65708 -0.0399,-1.18272 -61.23892,-36.83575 -64.48197,-37.56557 -1.68165,-0.37844 -44.81183,72.48717 -44.81183,75.70665 0,3.16156 43.19323,76.11129 44.84454,75.73865 0.94118,-0.2124 15.81841,-8.48617 33.06049,-18.38617 z m 197.0223,-17.68612 c 11.51003,-19.97264 21.27619,-37.23871 21.70257,-38.36904 0.46766,-1.23975 -7.91113,-17.11043 -21.11764,-40 l -21.89289,-37.94484 -44.01734,-0.35115 -44.01735,-0.35116 -21.74472,37.60486 c -11.9596,20.68268 -21.74219,38.54069 -21.73908,39.68449 0.003,1.14378 9.58168,18.71822 21.28572,39.05428 l 21.28007,36.97465 44.66666,0.005 44.66667,0.005 20.92733,-36.31388 z m 122.27825,-0.92267 c 11.80359,-20.50149 21.46108,-37.96924 21.46108,-38.81723 0,-1.64912 -22.54816,-41.24065 -23.48737,-41.24065 -4.5374,0 -29.70704,-6.81414 -40.10171,-10.85668 l -13.58908,-5.28486 -15.39558,8.83994 c -8.46756,4.86198 -15.73206,9.38438 -16.1433,10.04978 -0.41124,0.66541 4.11648,9.6011 10.0616,19.85712 l 10.80932,18.64729 -10.90498,18.81233 c -7.8402,13.52524 -10.49836,19.21895 -9.45818,20.25913 2.14534,2.14534 61.95309,36.7583 63.7482,36.89343 0.8464,0.0637 11.1964,-16.65809 23,-37.1596 z m -259.66075,-124.71868 11.12184,-19.32748 22.35378,-0.006 22.35378,-0.006 -0.35378,-38.33333 -0.35378,-38.33333 -44.03468,-0.35093 -44.03468,-0.35094 -22.49109,38.95346 c -12.37011,21.4244 -21.95451,39.14098 -21.29866,39.37021 0.65584,0.22922 15.59244,8.78922 33.19244,19.02224 17.6,10.23301 32.09517,18.62434 32.21149,18.64738 0.11627,0.0231 5.21632,-8.65545 11.33334,-19.28556 z m 170.86647,9.98278 c 0.5929,-0.51952 -5.49044,-7.47951 -13.5185,-15.46662 -23.09062,-22.97282 -38.01863,-48.22717 -46.6412,-78.90489 l -3.48224,-12.38924 -9.38468,0.38606 -9.38468,0.38605 -0.35379,38.33333 -0.35377,38.33333 h 22.41168 22.41168 l 11.05454,19.36686 11.05455,19.36685 7.55423,-4.23357 c 4.15481,-2.32846 8.0393,-4.65863 8.63218,-5.17816 z m -245.74463,-88.65531 25.73944,-44.66666 h 52.46361 52.46361 v -44 -44 l -78.33333,0.0568 -78.33333,0.0568 -38,66.07915 c -20.9,36.34354 -38,66.62282 -38,67.2873 0,1.30584 72.37767,43.67595 74.79695,43.78637 0.80498,0.0368 13.04636,-20.0332 27.20305,-44.59987 z m 219.71857,-9 0.38525,-11.66666 11.28141,-0.2 c 6.20479,-0.11 11.99818,-0.26 12.8742,-0.33334 0.87603,-0.0733 3.53186,4.36667 5.90186,9.86667 6.72694,15.61109 5.49166,14.66667 19.18333,14.66667 7.4141,0 11.9887,-0.52934 11.9887,-1.38723 0,-0.76299 -2.75741,-7.88523 -6.1276,-15.82723 l -6.12758,-14.43998 6.77804,-6.34007 c 3.72792,-3.48703 8.43533,-9.71479 10.46092,-13.83944 3.27614,-6.67115 3.68289,-8.97195 3.68289,-20.83272 0,-12.1313 -0.35577,-14.03548 -3.94631,-21.12178 -5.03325,-9.93363 -15.71746,-19.77216 -25.72481,-23.68863 -7.06596,-2.76532 -9.893,-3.0061 -36.32888,-3.09413 l -28.66666,-0.0955 -0.34782,58.66667 c -0.1913,32.26666 -0.0511,59.44017 0.31152,60.38556 0.48503,1.26444 3.7497,1.61696 12.34783,1.33333 l 11.68847,-0.38556 z m 0.28142,-60.33333 v -23.33333 h 14.04283 c 15.55,0 20.5218,1.42339 26.20568,7.50245 10.15449,10.86052 7.78497,28.45859 -4.82705,35.84972 -5.11003,2.99468 -7.09178,3.31449 -20.5386,3.31449 h -14.88286 z m 139.66221,68.39333 c 9.35587,-3.45264 20.55323,-13.8502 25.2788,-23.47321 l 3.72565,-7.58679 0.402,-43.0529 0.40202,-43.05292 -11.73535,0.38625 -11.73533,0.38624 -0.66667,40 c -0.7049,42.29465 -0.72929,42.45261 -7.55192,48.91517 -10.01686,9.48823 -27.25636,8.12091 -35.01654,-2.77725 -4.46062,-6.26436 -5.43154,-15.62617 -5.43154,-52.37181 v -34.53659 l -11.66666,0.38524 -11.66667,0.38524 v 41.33334 41.33333 l 4.20167,8.86833 c 11.32198,23.89699 36.48598,34.07481 61.46054,24.85833 z m 62.68917,-41.65996 c 0.344,-44.31325 0.41208,-45.33119 3.23243,-48.33333 3.64831,-3.88344 11.4636,-4.13809 15.93515,-0.51924 l 3.1477,2.54748 0.66667,45.78585 0.66667,45.78587 11.58576,0.38407 11.58576,0.38406 0.41424,-45.27857 0.41424,-45.27856 3.23241,-3.43884 c 4.00144,-4.25694 11.61318,-4.67354 16.28654,-0.89136 l 3.14771,2.54748 0.66667,45.78585 0.66666,45.78587 11.66667,0.38524 11.66667,0.38525 v -46.55094 c 0,-37.79663 -0.37299,-47.60809 -1.98335,-52.17235 -7.10929,-20.14988 -31.27633,-29.45352 -50.0688,-19.27509 l -7.31649,3.96278 -7.88988,-4.03411 c -18.41288,-9.41454 -38.9246,-2.44182 -48.92812,16.63256 -3.10244,5.91562 -3.15252,6.64449 -3.56057,51.8285 -0.22764,25.20568 -0.0875,46.67919 0.31153,47.71889 0.56611,1.47526 3.29223,1.80572 12.41388,1.50483 l 11.68847,-0.38556 z M 410.76959,185.58267 c 0,-12.46373 2.36112,-29.41036 6.04601,-43.39448 2.75454,-10.45342 4.97623,-16.73434 12.22831,-34.57055 0.52167,-1.28303 -3.34501,-1.66666 -16.79833,-1.66666 h -17.47599 v 44 44 h 8 8 z"
     style="fill:#023947;stroke-width:1.33333325" />
  <path
     inkscape:connector-curvature="0"
     id="path3909"
     d="M 100.14038,565.61763 C 49.221861,477.4343 7.5545627,404.37922 7.5463828,403.27301 7.5382028,402.16681 49.184889,329.11681 100.09457,240.93968 l 92.56307,-160.322035 127.38931,-0.03152 127.38931,-0.03152 4,-5.424491 c 2.2,-2.983469 8.83694,-10.074269 14.74878,-15.757333 33.34609,-32.055708 76.42048,-49.4218011 122.58455,-49.4218011 84.02505,0 155.34555,58.4714521 172.82432,141.6884401 3.77272,17.96204 4.09239,48.21454 0.69186,65.47689 -7.02636,35.66843 -22.40022,65.58143 -46.98148,91.41213 -6.16076,6.47389 -11.20137,12.07681 -11.20137,12.45092 0,0.37412 10.51953,18.86216 23.37674,41.08453 14.38871,24.86943 23.07159,41.20203 22.58307,42.47904 -0.43652,1.14109 -42.27375,73.92471 -92.97163,161.74137 L 564.91316,725.95096 H 378.81633 192.7195 Z m 262.31361,91.33333 -0.35106,-44.99999 -52.31118,-0.66667 -52.31118,-0.66667 -25.258,-43.7914 c -13.89191,-24.08528 -25.56816,-44.10157 -25.94724,-44.48064 -0.37908,-0.37908 -18.11893,9.36272 -39.42191,21.64844 l -38.73267,22.33767 2.52273,4.14297 c 1.3875,2.27863 18.24781,31.44296 37.46736,64.80963 19.21954,33.36666 35.79414,62.01666 36.83244,63.66666 l 1.8878,3 h 77.98698 77.987 z M 588.33775,637.2843 c 20.32059,-35.2 37.87443,-65.58191 39.00853,-67.51536 l 2.06197,-3.51536 -38.70701,-22.31917 c -21.28887,-12.27555 -38.93332,-22.09288 -39.20989,-21.81631 -0.27659,0.27657 -11.94688,20.30212 -25.934,44.5012 l -25.43112,43.99833 -52.34499,0.66667 -52.34498,0.66667 -0.35108,45.01066 -0.35108,45.01067 78.32856,-0.344 78.32855,-0.344 z m -225.88136,-90.33333 -0.35346,-39 -22.08034,-0.36443 -22.08033,-0.36442 -10.58633,-18.59111 c -5.82248,-10.22512 -10.98871,-18.61113 -11.4805,-18.63559 -0.86086,-0.0428 -64.96943,36.70803 -66.22619,37.96479 -0.56655,0.56656 8.33237,16.46478 34.13914,60.99076 l 9.85303,17 h 44.58422 44.58424 z m 143.79429,0.52344 c 12.01873,-20.79546 21.85224,-38.26583 21.85224,-38.82307 0,-1.614 -65.30688,-38.8741 -66.6648,-38.03485 -0.67385,0.41645 -5.81086,8.82285 -11.41558,18.68088 l -10.1904,17.92368 -22.19795,0.36496 -22.19793,0.36496 -0.35351,39.01776 -0.35349,39.01776 44.83458,-0.3511 44.83459,-0.35109 z M 151.56716,516.2843 c 20.77282,-11.91666 37.79136,-22.09989 37.81894,-22.62938 0.0276,-0.5295 -11.58337,-21.09608 -25.80213,-45.70351 l -25.85228,-44.7408 25.85228,-44.72946 c 14.21876,-24.60122 25.82972,-45.13463 25.80213,-45.62983 -0.0276,-0.49519 -17.17933,-10.72717 -38.11498,-22.73775 -31.93852,-18.32279 -38.34176,-21.54167 -39.78553,-19.99999 -2.16544,2.31229 -76.715986,131.70899 -76.715986,133.15524 0,0.89179 69.757436,122.5474 75.506666,131.68215 1.03848,1.65 2.25578,3 2.70511,3 0.44934,0 17.81294,-9.75 38.58578,-21.66667 z m 532.76537,-45.08606 c 21.02629,-36.25267 38.27629,-66.69666 38.33333,-67.65331 0.0813,-1.36315 -28.08348,-51.39692 -36.67073,-65.14434 -1.79661,-2.8762 -1.84053,-2.86383 -16.84676,4.74189 -20.66716,10.47488 -48.56171,18.76931 -63.32257,18.82891 -9.5278,0.0385 -9.44696,0.67072 2.77898,21.73429 l 11.32042,19.50345 -25.96992,44.91213 c -16.98344,29.37102 -25.51717,45.3649 -24.66152,46.22055 2.582,2.582 74.1716,43.49996 75.47582,43.13918 0.73334,-0.20285 18.53666,-30.03009 39.56295,-66.28275 z m -439.23737,-8.7883 c 17.42094,-10.01424 32.39405,-18.86424 33.27359,-19.66666 1.21808,-1.11131 -0.91336,-5.74831 -8.94445,-19.45898 -5.79898,-9.9 -10.55305,-18.9 -10.56458,-20 -0.012,-1.1 4.71986,-10.09999 10.51422,-19.99999 7.94552,-13.57538 10.14933,-18.35863 8.96543,-19.45898 -2.20031,-2.04498 -65.10165,-38.12336 -65.58841,-37.61958 -0.2189,0.22653 -10.35852,17.65173 -22.53251,38.72265 l -22.13453,38.31074 22.34284,38.67918 c 12.28856,21.27353 22.48934,38.68369 22.6684,38.68924 0.17905,0.005 14.57905,-8.18339 32,-18.19762 z m 199.90347,-19.7923 c 11.91231,-20.53334 21.66588,-38.23334 21.6746,-39.33334 0.009,-1.1 -9.72267,-18.79999 -21.62533,-39.33333 l -21.64122,-37.33333 h -44.5977 -44.59771 l -21.65693,37.33333 c -11.91131,20.53334 -21.68569,38.10631 -21.72084,39.05104 -0.0507,1.36073 34.06847,61.81008 42.125,74.63355 l 1.89605,3.01792 44.24268,-0.35126 44.24267,-0.35125 z m 122.18313,-0.66142 22.32248,-38.66141 -10.86935,-19.00525 c -12.40249,-21.686 -13.88642,-23.66731 -17.73862,-23.68408 -4.95266,-0.0216 -27.83274,-6.36044 -38.12668,-10.56291 -5.5,-2.24534 -10.71762,-4.08452 -11.5947,-4.08702 -1.54109,-0.004 -30.8557,16.55221 -32.59861,18.41141 -0.47298,0.50453 3.86891,9.01735 9.64866,18.91735 5.77974,9.9 10.51673,18.82957 10.52663,19.84349 0.009,1.01392 -4.51111,9.65129 -10.0467,19.19417 -5.5356,9.54288 -10.1856,17.91092 -10.33333,18.59563 -0.2152,0.99738 63.20254,39.16146 65.77622,39.5834 0.39133,0.0641 10.75663,-17.281 23.034,-38.54478 z m -259.6693,-124.76186 10.74287,-18.57672 22.25713,-0.36557 22.25713,-0.36558 v -38.65215 -38.65216 l -44.79613,0.35106 -44.79614,0.35107 -21.87052,37.81873 c -12.0288,20.8003 -21.87054,38.23603 -21.87054,38.74607 0,1.3088 64.3776,38.5945 66,38.22536 0.73333,-0.16686 6.16763,-8.66291 12.0762,-18.88011 z m 163.98286,14.47263 c 4.73418,-2.72287 8.57352,-5.27287 8.53187,-5.66667 -0.0416,-0.39381 -3.68767,-3.65211 -8.10225,-7.24068 -15.8887,-12.91573 -33.73931,-36.8224 -43.87391,-58.75872 -4.27505,-9.25333 -7.66535,-19.29116 -12.73883,-37.71661 -0.31533,-1.14517 -3.60093,-1.66667 -10.50077,-1.66667 h -10.04184 v 38.63443 38.63442 l 22.25908,0.36558 22.25908,0.36557 9.66197,16.66667 c 12.29743,21.21273 12.37218,21.33333 13.22356,21.33333 0.39294,0 4.58786,-2.2278 9.32204,-4.95065 z m -239.27068,-92.04935 25.96765,-45 52.28865,-0.34881 52.28865,-0.3488 v -44.66185 -44.66185 l -78.30413,0.34399 -78.30412,0.34399 -38.88913,67.33334 c -21.38902,37.03333 -38.69923,67.53626 -38.46713,67.7843 0.79947,0.85432 75.96568,44.14797 76.70822,44.18181 0.40903,0.0187 12.42914,-20.21612 26.71134,-44.96612 z m 219.87828,-9.66666 v -12 l 13,0.0304 13,0.0304 5.13514,11.96956 5.13514,11.96956 h 13.17873 13.17875 l -2.52847,-6.33334 c -1.39065,-3.48333 -4.33036,-10.52254 -6.53268,-15.64269 l -4.00421,-9.30936 6.43435,-6.1692 c 11.9554,-11.46272 17.71548,-28.50818 14.64909,-43.35017 -3.39176,-16.41675 -12.89481,-28.55433 -27.97917,-35.73576 l -8.66667,-4.12607 -29.66666,-0.44422 -29.66667,-0.44423 v 60.77756 60.77756 h 12.66667 12.66666 z m 0,-60.66667 v -23.33333 h 13.71748 c 11.57712,0 14.64407,0.46809 19.65591,3 13.90026,7.0222 17.15652,23.70171 6.98668,35.78788 -5.36445,6.37529 -10.38651,7.87878 -26.31724,7.87878 h -14.04283 z m 142.06992,67.49635 c 14.97761,-7.00888 24.37761,-19.53807 27.24257,-36.31147 0.87736,-5.13661 1.30261,-22.54499 1.07123,-43.85154 l -0.38372,-35.33334 -12.33334,-0.38336 -12.33333,-0.38337 v 38.43417 c 0,37.20925 -0.0956,38.62345 -3,44.37261 -6.91086,13.6799 -24.01084,17.42971 -35.09661,7.69626 -8.57353,-7.52766 -8.57005,-7.50696 -8.57005,-51.00343 v -39.39954 h -12.75134 -12.75133 l 0.418,42.36628 0.418,42.36626 4.38233,8.89688 c 4.35518,8.84173 12.82631,17.83421 20.5912,21.85844 13.1002,6.78931 29.48228,7.04595 43.09639,0.67515 z m 60.59674,-40.22362 V 151.1631 l 3.27274,-3.27272 c 2.00236,-2.00237 4.80657,-3.27273 7.22428,-3.27273 11.93064,0 12.16965,1.04617 12.16965,53.26711 v 44.06622 h 12.66667 12.66666 V 196.55704 151.1631 l 3.27274,-3.27272 c 4.81864,-4.81865 11.48113,-4.47196 15.94207,0.82957 l 3.45186,4.1023 v 44.61439 44.6144 l 12.33333,-0.38336 12.33333,-0.38337 v -46.66667 c 0,-46.34546 -0.0219,-46.71518 -3.1858,-53.71689 -9.10689,-20.1537 -34.67273,-27.84149 -52.45562,-15.77369 -4.53424,3.07702 -4.68627,3.09017 -7.82465,0.6771 -5.65606,-4.34887 -15.56995,-6.91717 -23.81499,-6.16954 -9.60043,0.87053 -16.69216,4.48602 -23.68961,12.07736 -9.19951,9.98029 -9.69599,13.31616 -9.69599,65.14766 v 45.09134 h 12.66667 12.66666 z M 412.10292,181.45896 c 0,-20.99206 4.87806,-43.52925 14.06994,-65.00469 2.5282,-5.90678 4.59673,-10.98643 4.59673,-11.28811 0,-0.30169 -8.1,-0.54852 -18,-0.54852 h -18 v 44.66667 44.66667 h 8.66667 8.66666 z"
     style="fill:#00212a;stroke-width:1.33333325" />
</svg>
